<?xml version="1.0" encoding="utf-8"?>
<!-- Generator: Adobe Illustrator 25.4.1, SVG Export Plug-In . SVG Version: 6.00 Build 0)  -->
<svg version="1.1" id="Layer_1" xmlns:v="https://vecta.io/nano"
	 xmlns="http://www.w3.org/2000/svg" xmlns:xlink="http://www.w3.org/1999/xlink" x="0px" y="0px" viewBox="0 0 595.3 553.8"
	 style="enable-background:new 0 0 595.3 553.8;" xml:space="preserve">
<style type="text/css">
	.st0{fill:#FCFCFC;}
</style>
<path class="st0" d="M300.9,288.29l72.7-77.3c4.9-5.1,11-10.3,17.5-12.4c12.9-4.1,24.5,0.1,32.1,11.6c8,12.2,7.3,25-2.8,35.4
	l-104.3,104.2c-11.6,11.2-26.1,11.2-37.7-0.1l-104.2-104.3c-11.4-11.8-10-28.2,0.8-39.2c11.4-11.5,27.7-12.4,40.4-0.4
	c23.6,22.2,46.5,45.1,69.7,67.7C289.1,277.39,293.2,281.09,300.9,288.29L300.9,288.29z"/>
</svg>
