<?xml version="1.0" encoding="utf-8"?>
<!-- Generator: Adobe Illustrator 25.4.1, SVG Export Plug-In . SVG Version: 6.00 Build 0)  -->
<svg version="1.1" id="Layer_1" xmlns="http://www.w3.org/2000/svg" xmlns:xlink="http://www.w3.org/1999/xlink" x="0px" y="0px"
	 viewBox="0 0 98.72 84.11" style="enable-background:new 0 0 98.72 84.11;" xml:space="preserve">
<style type="text/css">
	.st0{fill:#FEBB12;}
</style>
<path id="_x30_3_5_" class="st0" d="M85.43,29.93L77.3,21.8l1.86-1.86c0.77-0.77,1.19-1.79,1.19-2.88c0-1.09-0.42-2.11-1.19-2.88
	l-4.74-4.74c-2.49-2.49-5.8-3.86-9.32-3.86c-3.52,0-6.83,1.37-9.32,3.86L17.5,47.72c-2.49,2.49-3.86,5.8-3.86,9.32
	c0,3.52,1.37,6.83,3.86,9.32l4.74,4.74c0.79,0.79,1.84,1.19,2.88,1.19c1.04,0,2.09-0.4,2.88-1.19l1.86-1.86L38,77.36
	c0.19,0.19,0.43,0.28,0.68,0.28s0.49-0.09,0.68-0.28c0.37-0.37,0.37-0.98,0-1.35l-8.13-8.13l1.36-1.36l8.13,8.13
	c0.19,0.19,0.43,0.28,0.68,0.28c0.25,0,0.49-0.09,0.68-0.28c0.37-0.37,0.37-0.98,0-1.35l-8.13-8.13l1.36-1.36l8.13,8.13
	c0.19,0.19,0.43,0.28,0.68,0.28s0.49-0.09,0.68-0.28c0.37-0.37,0.37-0.98,0-1.35l-8.13-8.13L38,61.1l8.13,8.13
	c0.19,0.19,0.43,0.28,0.68,0.28c0.25,0,0.49-0.09,0.68-0.28c0.37-0.37,0.37-0.98,0-1.35l-8.13-8.13l1.36-1.36l8.13,8.13
	c0.19,0.19,0.43,0.28,0.68,0.28s0.49-0.09,0.68-0.28c0.37-0.37,0.37-0.98,0-1.35l-8.13-8.13l1.36-1.36l8.13,8.13
	c0.19,0.19,0.43,0.28,0.68,0.28s0.49-0.09,0.68-0.28c0.37-0.37,0.37-0.98,0-1.35l-8.13-8.13l1.36-1.36l8.13,8.13
	c0.19,0.19,0.43,0.28,0.68,0.28s0.49-0.09,0.68-0.28c0.37-0.37,0.37-0.98,0-1.35l-8.13-8.13l1.36-1.36l8.13,8.13
	c0.19,0.19,0.43,0.28,0.68,0.28c0.25,0,0.49-0.09,0.68-0.28c0.37-0.37,0.37-0.98,0-1.35L50.2,48.9l1.36-1.36l8.13,8.13
	c0.19,0.19,0.43,0.28,0.68,0.28s0.49-0.09,0.68-0.28c0.37-0.37,0.37-0.98,0-1.35l-8.13-8.13l1.36-1.36l8.13,8.13
	c0.19,0.19,0.43,0.28,0.68,0.28c0.25,0,0.49-0.09,0.68-0.28c0.37-0.37,0.37-0.98,0-1.35l-8.13-8.13l1.36-1.36l8.13,8.13
	c0.19,0.19,0.43,0.28,0.68,0.28c0.25,0,0.49-0.09,0.68-0.28c0.37-0.37,0.37-0.98,0-1.35l-8.13-8.13l1.36-1.36l8.13,8.13
	c0.19,0.19,0.43,0.28,0.68,0.28c0.25,0,0.49-0.09,0.68-0.28c0.37-0.37,0.37-0.98,0-1.35l-8.13-8.13l1.36-1.36l8.13,8.13
	c0.19,0.19,0.43,0.28,0.68,0.28c0.25,0,0.49-0.09,0.68-0.28c0.37-0.37,0.37-0.98,0-1.35l-8.13-8.13L65.1,34l8.13,8.13
	c0.19,0.19,0.43,0.28,0.68,0.28c0.25,0,0.49-0.09,0.68-0.28c0.37-0.37,0.37-0.98,0-1.35l-8.13-8.13l1.36-1.36l8.13,8.13
	c0.19,0.19,0.43,0.28,0.68,0.28c0.25,0,0.49-0.09,0.68-0.28c0.37-0.37,0.37-0.98,0-1.35l-8.13-8.13l1.36-1.36l8.13,8.13
	c0.19,0.19,0.43,0.28,0.68,0.28c0.25,0,0.49-0.09,0.68-0.28c0.37-0.37,0.37-0.98,0-1.35l-8.13-8.13l1.36-1.36L81.36,34
	c0.19,0.19,0.43,0.28,0.68,0.28c0.25,0,0.49-0.09,0.68-0.28c0.37-0.37,0.37-0.98,0-1.35l-8.13-8.13l1.36-1.36l8.13,8.13
	c0.19,0.19,0.43,0.28,0.68,0.28c0.25,0,0.49-0.09,0.68-0.28C85.8,30.91,85.8,30.31,85.43,29.93z M26.65,69.74
	c-0.84,0.84-2.21,0.84-3.05,0L18.86,65c-2.13-2.13-3.3-4.95-3.3-7.96c0-3.01,1.17-5.83,3.3-7.96l38.28-38.28
	c2.13-2.13,4.95-3.3,7.96-3.3c3.01,0,5.83,1.17,7.96,3.3l4.74,4.74c0.41,0.41,0.63,0.95,0.63,1.52c0,0.58-0.22,1.12-0.63,1.52
	l-5.25,5.25l0,0c0,0,0,0,0,0l-5.42,5.42c0,0,0,0,0,0c0,0,0,0,0,0l-2.71,2.71c0,0,0,0,0,0c0,0,0,0,0,0l-5.42,5.42c0,0,0,0,0,0
	c0,0,0,0,0,0l-2.71,2.71c0,0,0,0,0,0c0,0,0,0,0,0l-2.71,2.71c0,0,0,0,0,0c0,0,0,0,0,0l-2.71,2.71c0,0,0,0,0,0c0,0,0,0,0,0
	l-5.42,5.42c0,0,0,0,0,0c0,0,0,0,0,0l-2.71,2.71c0,0,0,0,0,0c0,0,0,0,0,0l-5.42,5.42c0,0,0,0,0,0c0,0,0,0,0,0l-5.42,5.42
	c0,0,0,0,0,0c0,0,0,0,0,0l-2.71,2.71c0,0,0,0,0,0c0,0,0,0,0,0L26.65,69.74z"/>
</svg>
