<?xml version="1.0" encoding="utf-8"?>
<!-- Generator: Adobe Illustrator 25.4.1, SVG Export Plug-In . SVG Version: 6.00 Build 0)  -->
<svg version="1.1" id="Layer_1" xmlns="http://www.w3.org/2000/svg" xmlns:xlink="http://www.w3.org/1999/xlink" x="0px" y="0px"
	 viewBox="0 0 98.72 84.11" style="enable-background:new 0 0 98.72 84.11;" xml:space="preserve">
<style type="text/css">
	.st0{fill:#FEBB12;}
</style>
<path id="_x31_1_5_" class="st0" d="M86.78,53.22c0-5.18-4.21-9.39-9.39-9.39c-5.18,0-9.39,4.21-9.39,9.39
	c0,4.84,3.68,8.83,8.39,9.33c-0.1,1.57-0.63,4.98-3.35,7.88c-3.12,3.33-8.14,5.02-14.92,5.02c-6.87,0-11.87-1.67-14.85-4.96
	c-3.35-3.69-2.94-8.24-2.94-8.28c0.01-0.06,0.01-0.12,0-0.18c3.35-0.48,5.93-3.36,5.93-6.84c0-0.15-0.01-0.31-0.02-0.46
	c11.38-4.08,19.78-17.99,19.78-34.48c0-3.94-0.48-7.82-1.42-11.51c-0.05-0.2-0.16-0.36-0.3-0.49c-0.52-1.43-1.9-2.46-3.51-2.46
	h-4.38c-2.06,0-3.74,1.68-3.74,3.74v1.42c0,2.06,1.68,3.74,3.74,3.74h4.38c1.08,0,2.06-0.47,2.74-1.2c0.33,2.22,0.5,4.49,0.5,6.78
	c0,16-8.21,29.42-19.18,32.86l0,0c-0.45,0.14-0.91,0.27-1.37,0.37c0,0,0,0,0,0c-0.46,0.11-0.92,0.2-1.38,0.27l0,0
	c-1.84,0.29-3.7,0.29-5.54,0l0,0c-0.46-0.07-0.92-0.16-1.38-0.27c0,0,0,0,0,0c-0.46-0.11-0.91-0.23-1.37-0.37l0,0
	c-10.97-3.43-19.18-16.86-19.18-32.86c0-2.29,0.17-4.56,0.5-6.78c0.68,0.74,1.66,1.2,2.74,1.2h4.38c2.06,0,3.74-1.68,3.74-3.74V9.53
	c0-2.06-1.68-3.74-3.74-3.74h-4.38c-1.92,0-3.5,1.46-3.71,3.32c-0.15,0.13-0.26,0.31-0.31,0.51c-0.8,3.43-1.2,7.01-1.2,10.63
	c0,16.49,8.41,30.4,19.78,34.48c-0.01,0.15-0.02,0.31-0.02,0.46c0,3.48,2.58,6.36,5.93,6.84c-0.04,0.42-0.43,5.49,3.42,9.76
	c3.37,3.74,8.87,5.64,16.34,5.64c7.35,0,12.86-1.9,16.36-5.65c3.2-3.42,3.79-7.4,3.88-9.23C83.09,62.06,86.78,58.06,86.78,53.22z
	 M62.57,10.95c0,0.97-0.79,1.76-1.76,1.76h-4.38c-0.97,0-1.76-0.79-1.76-1.76V9.53c0-0.97,0.79-1.76,1.76-1.76h4.38
	c0.97,0,1.76,0.79,1.76,1.76V10.95z M16.13,9.53c0-0.97,0.79-1.76,1.76-1.76h4.38c0.97,0,1.76,0.79,1.76,1.76v1.42
	c0,0.97-0.79,1.76-1.76,1.76h-4.38c-0.97,0-1.76-0.79-1.76-1.76V9.53z M34.41,55.33c0.07,0.02,0.14,0.03,0.2,0.04
	c0.32,0.08,0.63,0.15,0.96,0.21c0.1,0.02,0.2,0.03,0.31,0.05c0.31,0.06,0.63,0.11,0.95,0.15c0.12,0.02,0.24,0.02,0.36,0.04
	c0.3,0.03,0.6,0.07,0.9,0.08c0.13,0.01,0.27,0.01,0.4,0.01c0.28,0.01,0.57,0.03,0.85,0.03s0.57-0.02,0.85-0.03
	c0.13-0.01,0.27-0.01,0.4-0.01c0.3-0.02,0.6-0.05,0.9-0.08c0.12-0.01,0.24-0.02,0.36-0.04c0.32-0.04,0.63-0.09,0.95-0.15
	c0.1-0.02,0.2-0.03,0.31-0.05c0.32-0.06,0.64-0.13,0.96-0.21c0.07-0.02,0.14-0.03,0.2-0.04c-0.07,2.66-2.26,4.81-4.94,4.81
	S34.48,57.99,34.41,55.33z M77.39,60.63c-4.09,0-7.41-3.32-7.41-7.41c0-4.09,3.32-7.41,7.41-7.41c4.09,0,7.41,3.32,7.41,7.41
	C84.8,57.31,81.48,60.63,77.39,60.63z M77.39,48.77c-2.45,0-4.45,1.99-4.45,4.45c0,2.45,1.99,4.45,4.45,4.45
	c2.45,0,4.45-1.99,4.45-4.45C81.84,50.77,79.84,48.77,77.39,48.77z M77.39,55.69c-1.36,0-2.47-1.11-2.47-2.47
	c0-1.36,1.11-2.47,2.47-2.47c1.36,0,2.47,1.11,2.47,2.47C79.86,54.58,78.75,55.69,77.39,55.69z"/>
</svg>
