<?xml version="1.0" encoding="utf-8"?>
<!-- Generator: Adobe Illustrator 25.4.1, SVG Export Plug-In . SVG Version: 6.00 Build 0)  -->
<svg version="1.1" id="Layer_1" xmlns="http://www.w3.org/2000/svg" xmlns:xlink="http://www.w3.org/1999/xlink" x="0px" y="0px"
	 viewBox="0 0 98.72 84.11" style="enable-background:new 0 0 98.72 84.11;" xml:space="preserve">
<style type="text/css">
	.st0{fill:#FEBB12;}
</style>
<path id="_x31_5_5_" class="st0" d="M81.71,73.32h-8.93c0.44-0.68,0.7-1.49,0.7-2.36V40.61l1.66,1.66c0.47,0.47,1.08,0.7,1.7,0.7
	c0.61,0,1.23-0.23,1.7-0.7l3.55-3.55c0.45-0.45,0.7-1.06,0.7-1.7s-0.25-1.24-0.7-1.7L52.34,5.71c-1.03-1.03-2.72-1.03-3.75,0
	L18.84,35.33c-0.45,0.45-0.7,1.06-0.7,1.7s0.25,1.24,0.7,1.7l3.55,3.55c0.93,0.93,2.46,0.94,3.39,0l1.66-1.66v28.27h-0.87
	c-1.09,0-2.05,0.7-2.37,1.75l-0.84,2.7h-5.69c-0.55,0-0.99,0.44-0.99,0.99c0,0.55,0.44,0.99,0.99,0.99h5.08l-0.01,0.02
	c-0.24,0.76-0.1,1.57,0.37,2.21c0.47,0.64,1.2,1.01,2,1.01h19c0.8,0,1.53-0.37,2-1.01c0.47-0.64,0.6-1.43,0.38-2.19H64.2
	c0.1,0,0.2-0.02,0.29-0.05h4.66h12.56c0.55,0,0.99-0.44,0.99-0.99C82.7,73.76,82.26,73.32,81.71,73.32z M24.38,40.87
	c-0.11,0.11-0.23,0.12-0.3,0.12c-0.07,0-0.19-0.02-0.3-0.12l-3.55-3.55c-0.11-0.11-0.12-0.23-0.12-0.3s0.02-0.19,0.12-0.3
	L49.98,7.11c0.27-0.27,0.7-0.26,0.96,0l29.74,29.62c0.11,0.11,0.12,0.23,0.12,0.3s-0.02,0.19-0.12,0.3l-3.55,3.55
	c-0.11,0.11-0.23,0.12-0.3,0.12s-0.19-0.02-0.3-0.12l-3.35-3.35c0,0,0,0,0,0L51.16,15.49c-0.19-0.19-0.45-0.29-0.7-0.29h0
	c-0.25,0-0.51,0.1-0.7,0.29L27.73,37.52c0,0,0,0,0,0L24.38,40.87z M44.51,76.36c-0.06,0.08-0.19,0.21-0.41,0.21h-19
	c-0.23,0-0.35-0.13-0.41-0.21c-0.06-0.08-0.14-0.24-0.08-0.45l1.47-4.69c0.07-0.21,0.26-0.36,0.49-0.36h1.86h8.29h5.91
	c0.22,0,0.42,0.14,0.49,0.36l1.06,3.39l0,0l0.41,1.3C44.65,76.12,44.56,76.28,44.51,76.36z M63.21,73.32H45.84L45,70.62
	c-0.29-0.91-1.05-1.56-1.97-1.71c-0.13-0.02-0.27-0.03-0.4-0.03h-4.92V41.3c0-1.05,0.85-1.9,1.9-1.9h21.71c1.05,0,1.9,0.85,1.9,1.9
	V73.32z M65.19,73.32V41.3c0-2.14-1.74-3.87-3.87-3.87H39.61c-2.14,0-3.87,1.74-3.87,3.87v27.57h-6.32V38.63l21.05-21.05
	l21.05,21.05v32.33c0,1.3-1.06,2.36-2.36,2.36H65.19z"/>
</svg>
