<?xml version="1.0" encoding="utf-8"?>
<!-- Generator: Adobe Illustrator 25.4.1, SVG Export Plug-In . SVG Version: 6.00 Build 0)  -->
<svg version="1.1" id="Layer_1" xmlns="http://www.w3.org/2000/svg" xmlns:xlink="http://www.w3.org/1999/xlink" x="0px" y="0px"
	 viewBox="0 0 332.72 79.89" style="enable-background:new 0 0 332.72 79.89;" xml:space="preserve">
<style type="text/css">
	.st0{fill:#723C87;}
	.st1{fill:#FEBB12;}
</style>
<g>
	<g>
		<g>
			<path class="st0" d="M95.89,32.21c0-0.54-0.29-0.79-0.79-0.79h-1.55v-3.1h3.64c1.62,0,2.3,0.68,2.3,2.3v8.89h12.92v-8.89
				c0-1.62,0.68-2.3,2.3-2.3h3.64v3.1h-1.55c-0.5,0-0.79,0.25-0.79,0.79v21.53h-3.6V42.57H99.49v11.16h-3.6V32.21z"/>
			<path class="st0" d="M131.14,35.09c5.44,0,9.83,4,9.83,9.5c0,5.54-4.39,9.57-9.83,9.57c-5.44,0-9.79-4.03-9.79-9.57
				C121.34,39.08,125.7,35.09,131.14,35.09z M131.14,51.14c3.46,0,6.26-2.74,6.26-6.55c0-3.78-2.81-6.48-6.26-6.48
				c-3.42,0-6.23,2.7-6.23,6.48C124.91,48.4,127.72,51.14,131.14,51.14z"/>
			<path class="st0" d="M145.82,39.3c0-0.54-0.29-0.79-0.79-0.79h-1.48v-2.99h3.35c1.55,0,2.3,0.68,2.3,2.02v0.68
				c0,0.58-0.07,1.04-0.07,1.04h0.07c0.72-1.58,2.88-4.18,6.84-4.18c4.32,0,6.26,2.34,6.26,6.98v7.88c0,0.54,0.29,0.79,0.79,0.79
				h1.48v2.99h-3.46c-1.62,0-2.3-0.68-2.3-2.3v-8.57c0-2.56-0.5-4.57-3.42-4.57c-2.81,0-5.04,1.84-5.76,4.46
				c-0.25,0.72-0.32,1.55-0.32,2.45v8.53h-3.49V39.3z"/>
			<path class="st0" d="M176.24,35.09c5.11,0,7.85,3.82,7.85,8.53c0,0.47-0.11,1.44-0.11,1.44h-13.28c0.22,3.89,3.02,6.08,6.26,6.08
				c3.13,0,5.33-2.12,5.33-2.12l1.51,2.48c0,0-2.7,2.66-7.02,2.66c-5.76,0-9.68-4.14-9.68-9.54
				C167.09,38.83,171.05,35.09,176.24,35.09z M180.48,42.5c-0.11-3.02-2.02-4.64-4.28-4.64c-2.66,0-4.82,1.62-5.36,4.64H180.48z"/>
			<path class="st0" d="M190.45,58.27c1.4,0,2.52-1.01,3.2-2.63l0.83-1.98l-6.23-14.43c-0.25-0.58-0.58-0.72-1.15-0.72h-0.43v-2.99
				h2.05c1.48,0,2.02,0.4,2.59,1.84l4.14,10.26c0.36,0.94,0.65,2.2,0.65,2.2h0.07c0,0,0.25-1.26,0.61-2.2l3.78-10.26
				c0.54-1.44,1.19-1.84,2.66-1.84h2.09v2.99h-0.47c-0.58,0-0.9,0.14-1.15,0.72l-7.2,17.78c-1.12,2.81-3.31,4.28-5.87,4.28
				c-2.7,0-4.28-1.8-4.28-1.8l1.44-2.52C187.79,57.01,188.91,58.27,190.45,58.27z"/>
		</g>
		<g>
			<path class="st1" d="M220.51,31.41h-2.34v-3.1h10.87c4.28,0,7.38,2.38,7.38,6.48c0,2.77-1.48,4.64-3.17,5.47v0.07
				c2.7,0.79,4.18,3.31,4.18,6.16c0,4.79-3.67,7.24-8.17,7.24h-6.44c-1.62,0-2.3-0.68-2.3-2.3V31.41z M229.07,39.01
				c2.23,0,3.67-1.62,3.67-3.85s-1.37-3.74-3.74-3.74h-4.9v7.6H229.07z M224.9,50.64h4.54c2.7,0,4.28-1.73,4.28-4.32
				s-1.69-4.36-4.28-4.36h-5.33v7.88C224.11,50.35,224.4,50.64,224.9,50.64z"/>
			<path class="st1" d="M242.54,39.3c0-0.54-0.29-0.79-0.79-0.79h-1.48v-2.99h3.42c1.66,0,2.34,0.68,2.34,2.23v8.64
				c0,2.52,0.5,4.54,3.38,4.54c3.74,0,5.94-3.28,5.94-6.87v-8.53h3.49v14.43c0,0.54,0.29,0.79,0.79,0.79h1.48v2.99h-3.35
				c-1.55,0-2.3-0.72-2.3-2.02v-0.68c0-0.58,0.04-1.04,0.04-1.04h-0.07c-0.76,1.8-3.1,4.18-6.7,4.18c-4.1,0-6.19-2.16-6.19-6.98
				V39.3z"/>
			<path class="st1" d="M265.47,39.3c0-0.54-0.29-0.79-0.79-0.79h-1.48v-2.99h3.35c1.55,0,2.3,0.68,2.3,2.02v0.68
				c0,0.58-0.07,1.04-0.07,1.04h0.07c0.72-1.58,2.88-4.18,6.84-4.18c4.32,0,6.26,2.34,6.26,6.98v7.88c0,0.54,0.29,0.79,0.79,0.79
				h1.48v2.99h-3.46c-1.62,0-2.3-0.68-2.3-2.3v-8.57c0-2.56-0.5-4.57-3.42-4.57c-2.81,0-5.04,1.84-5.76,4.46
				c-0.25,0.72-0.32,1.55-0.32,2.45v8.53h-3.49V39.3z"/>
			<path class="st1" d="M288.5,39.3c0-0.54-0.29-0.79-0.79-0.79h-1.48v-2.99h3.35c1.55,0,2.3,0.68,2.3,2.02v0.68
				c0,0.58-0.07,1.04-0.07,1.04h0.07c0.72-1.58,2.88-4.18,6.84-4.18c4.32,0,6.26,2.34,6.26,6.98v7.88c0,0.54,0.29,0.79,0.79,0.79
				h1.48v2.99h-3.46c-1.62,0-2.3-0.68-2.3-2.3v-8.57c0-2.56-0.5-4.57-3.42-4.57c-2.81,0-5.04,1.84-5.76,4.46
				c-0.25,0.72-0.32,1.55-0.32,2.45v8.53h-3.49V39.3z"/>
			<path class="st1" d="M312.37,58.27c1.4,0,2.52-1.01,3.2-2.63l0.83-1.98l-6.23-14.43c-0.25-0.58-0.58-0.72-1.15-0.72h-0.43v-2.99
				h2.05c1.48,0,2.02,0.4,2.59,1.84l4.14,10.26c0.36,0.94,0.65,2.2,0.65,2.2h0.07c0,0,0.25-1.26,0.61-2.2l3.78-10.26
				c0.54-1.44,1.19-1.84,2.66-1.84h2.09v2.99h-0.47c-0.58,0-0.9,0.14-1.15,0.72l-7.2,17.78c-1.12,2.81-3.31,4.28-5.87,4.28
				c-2.7,0-4.28-1.8-4.28-1.8l1.44-2.52C309.7,57.01,310.82,58.27,312.37,58.27z"/>
		</g>
	</g>
	<g>
		<g>
			<path class="st0" d="M46.61,59.41c0,0-2.2,5.16-4.2,6.88c-0.04,0.03-0.08,0.06-0.11,0.1h3.44c0.01-0.06,0.02-0.1,0.02-0.1
				s2.77-2.29,4.97-1.53C50.72,64.76,47.38,62.66,46.61,59.41z"/>
			<path class="st0" d="M70.78,18.63H40.06c-0.63,0-1.15,0.51-1.15,1.15v1.15c0.29,0.09,0.56,0.24,0.67,0.5
				c0.25,0.64,1.91,2.93,1.91,2.93s5.09,1.02,7,2.67l4.33-1.78c0,0,2.8-0.76,1.4,1.4c-1.4,2.16-4.2,5.6-4.2,5.6s0.64,3.95-3.44,4.33
				c0,0,2.42,4.07,7.64,7.51c5.22,3.44,7.39,11.59,5.22,16.3c0,0,3.57-0.76,0.51-9.81c-3.06-9.04-0.51-12.73-0.51-12.73
				s4.2-4.2,8.02-2.42c3.82,1.78,1.15,3.95,1.15,3.95s-0.99,0.25-1.08-0.89c-0.1-1.15-1.91-1.91-3.25-1.05
				c-1.34,0.86-4.11,3.44-2.39,8.4c1.72,4.97,7.64,14.23-4.97,20.44c-0.07,0.03-0.13,0.06-0.2,0.1h14.05c0.63,0,1.15-0.51,1.15-1.15
				V19.78C71.92,19.15,71.41,18.63,70.78,18.63z"/>
		</g>
		<path class="st1" d="M38.69,51.01L38.5,64.28c0,0,7.16-2.29,0.96-16.71c0,0-1.81-3.82,0.96-10.12c0,0-2.58,0.48-3.44,0.1
			c-0.86-0.38-3.34-5.73-3.34-5.73s-1.34-2.58,1.15-3.82c2.48-1.24,2.1-4.11,2.1-4.11s-0.51-2.16,1.18-3.09c0,0,1.27,0,1.53,0.64
			c0.06,0.15,0.2,0.39,0.38,0.68c2.82-0.47,4.75-3.48,4.75-3.48c-1.91-2.01-2.48-7.35-2.48-7.35c-0.38-2.96-2.2-0.76-2.2-0.76
			s-0.86,3.06-2.1,3.82c-1.24,0.76-3.34-0.1-3.34-0.1c-0.48,0.67-4.2,2.01-4.2,2.01c-7.35,1.62-5.44,7.07-5.25,7.83
			c0.19,0.76,2.67,3.34,2.1,1.15c-0.57-2.2,1.62-2.77,2.29-1.72c0.67,1.05,0.76,6.78,0.1,7.64c-0.67,0.86-2.96,2.48-8.88,5.35
			c-5.92,2.87-6.49,7.54-7.35,9.65s-3.92,4.97-5.54,4.87c-1.62-0.1-0.76,1.05-0.76,1.05c4.58,0.38,7.45-4.01,7.45-4.01
			c0.38,1.72,0.1,15.85-0.1,16.62c-0.19,0.76-1.05,2.77,1.24,2.58c2.29-0.19,1.34-2.01,1.34-2.01c-1.43-2.58,0.38-9.84,0.38-9.84
			s3.63-8.6,6.59-5.16c2.96,3.44,1.91,11.46,1.91,11.46c-0.1,3.53,0.57,3.72,0.57,3.72c2.96,0.38,3.44,2.58,3.44,2.58
			c2.39,2.67,3.06,0.96,3.06,0.96l1.53-2.39c0,0-1.53-0.96-2.1-2.48c-0.57-1.53-0.67-10.98-0.67-10.98s0-4.78,3.34-5.16
			C38.4,47.57,38.69,51.01,38.69,51.01z"/>
	</g>
</g>
</svg>
