<?xml version="1.0" encoding="utf-8"?>
<!-- Generator: Adobe Illustrator 25.4.1, SVG Export Plug-In . SVG Version: 6.00 Build 0)  -->
<svg version="1.1" id="Layer_1" xmlns="http://www.w3.org/2000/svg" xmlns:xlink="http://www.w3.org/1999/xlink" x="0px" y="0px"
	 viewBox="0 0 98.72 84.11" style="enable-background:new 0 0 98.72 84.11;" xml:space="preserve">
<style type="text/css">
	.st0{fill:#FEBB12;}
</style>
<g>
	<path class="st0" d="M14.03,54.44h71.4c0.93,0,1.67-0.75,1.67-1.67c0-0.93-0.75-1.67-1.67-1.67h-1.67
		c-0.85-17.46-14.9-31.5-32.35-32.35v-4.52h4.01c0.93,0,1.67-0.75,1.67-1.67c0-0.93-0.75-1.67-1.67-1.67H44.04
		c-0.92,0-1.67,0.75-1.67,1.67c0,0.93,0.75,1.67,1.67,1.67h4.01v4.52c-17.46,0.85-31.5,14.9-32.35,32.35h-1.67
		c-0.93,0-1.67,0.75-1.67,1.67C12.35,53.69,13.1,54.44,14.03,54.44z M49.72,22.04c16.38,0,29.8,12.88,30.67,29.05H19.05
		C19.92,34.92,33.35,22.04,49.72,22.04z"/>
	<path class="st0" d="M36.19,27.49c-4.87,2.62-8.86,6.56-11.55,11.4c-0.45,0.81-0.16,1.83,0.65,2.28c0.26,0.14,0.54,0.21,0.81,0.21
		c0.59,0,1.16-0.31,1.47-0.86c2.37-4.28,5.9-7.76,10.21-10.07c0.81-0.44,1.12-1.45,0.68-2.27C38.02,27.36,37.01,27.05,36.19,27.49z"
		/>
	<path class="st0" d="M91.56,70.32L89.05,59c-0.17-0.77-0.85-1.31-1.64-1.31H12.04c-0.79,0-1.46,0.55-1.64,1.31L7.89,70.32
		c-0.11,0.5,0.01,1.02,0.33,1.41c0.32,0.4,0.8,0.63,1.31,0.63h80.4c0.51,0,0.99-0.23,1.31-0.63C91.55,71.33,91.67,70.81,91.56,70.32
		z M11.61,69.01l1.77-7.97h72.69l1.77,7.97H11.61z"/>
</g>
</svg>
