<?xml version="1.0" encoding="utf-8"?>
<!-- Generator: Adobe Illustrator 25.4.1, SVG Export Plug-In . SVG Version: 6.00 Build 0)  -->
<svg version="1.1" id="Layer_1" xmlns="http://www.w3.org/2000/svg" xmlns:xlink="http://www.w3.org/1999/xlink" x="0px" y="0px"
	 viewBox="0 0 138.72 129.89" style="enable-background:new 0 0 138.72 129.89;" xml:space="preserve">
<style type="text/css">
	.st0{fill:#FFFFFF;}
</style>
<g>
	<g>
		<polygon class="st0" points="57.89,55.65 60,55.66 60.59,65.48 56.35,66.17 		"/>
		<polygon class="st0" points="69.15,18.26 67.43,21.29 69.15,22.89 70.87,21.29 		"/>
		<path class="st0" d="M70.93,21.98l-1.78,1.66L67.39,22c-3.96,0.52-6.92,2.75-6.92,6.69c0,0.44,0.04,0.88,0.11,1.3
			c0.67-3.6,4.29-5.56,8.66-5.56c4.37,0,8,1.96,8.66,5.56c0.07-0.42,0.11-0.86,0.11-1.3C78.02,24.69,74.97,22.45,70.93,21.98"/>
		<path class="st0" d="M59.93,55.17c-0.1,0.87,3.72-7.64,2.55-10.77c-1.18-3.13-1.96-2.94-2.55-4.7c0,0-0.78,1.76-1.37,4.7
			C57.97,47.33,60.52,49.88,59.93,55.17"/>
		<path class="st0" d="M57.22,48.51c0.1,0.87-3.68-7.64-2.52-10.77c1.16-3.13,3.97-4.6,4.55-6.37c0,0-0.19,0.78,0.39,3.72
			C60.22,38.03,56.64,43.22,57.22,48.51"/>
		<path class="st0" d="M54.53,44.44c-0.37-0.73-1.15-5.62-0.57-7.39c0.59-1.76,3.72-4.11,3.53-5.68c-0.2-1.57-0.2-2.55-0.2-2.55
			s-2.35,1.37-3.13,0.98c-0.78-0.39-4.51,3.53-4.31,4.9C50.04,36.07,54.53,44.44,54.53,44.44"/>
		<path class="st0" d="M83.76,44.44c0.37-0.73,1.15-5.62,0.57-7.39c-0.59-1.76-3.72-4.11-3.53-5.68c0.2-1.57,0.2-2.55,0.2-2.55
			s2.35,1.37,3.13,0.98c0.78-0.39,4.51,3.53,4.31,4.9C88.24,36.07,83.76,44.44,83.76,44.44"/>
		<path class="st0" d="M59.05,55.27c-0.2-0.2-2.64-2.76-2.59-4.62l0.05-1.85c0,0,1.57,0.59,1.96,2.16
			C58.86,52.52,59.05,55.27,59.05,55.27"/>
		<path class="st0" d="M78.45,55.17c0.1,0.87-3.72-7.64-2.55-10.77c1.18-3.13,1.96-2.94,2.55-4.7c0,0,0.78,1.76,1.37,4.7
			C80.4,47.33,77.86,49.88,78.45,55.17"/>
		<path class="st0" d="M81.16,48.51c-0.1,0.87,3.68-7.64,2.52-10.77c-1.16-3.13-3.97-4.6-4.55-6.37c0,0,0.19,0.78-0.39,3.72
			C78.16,38.03,81.74,43.22,81.16,48.51"/>
		<path class="st0" d="M79.33,55.27c0.2-0.2,2.64-2.76,2.59-4.62l-0.05-1.85c0,0-1.57,0.59-1.96,2.16
			C79.52,52.52,79.33,55.27,79.33,55.27"/>
		<path class="st0" d="M76.99,36.39c-0.01-0.57,0.1-1.14,0.29-1.68c0.22-0.61,0.35-1.26,0.39-1.93c-0.76,0-1.51,0-2.25,0.02
			c-1.13,0.04-2.26,0.09-3.27,0.36c-0.5,0.14-0.96,0.35-1.2,0.65c-0.12,0.15-0.19,0.32-0.21,0.53c-0.01,0.05-0.01,0.11-0.01,0.16
			l0,0.21l0.01,0.43c0.04,1.14,0.01,2.28,0.14,3.44c-0.31-0.51-0.46-1.09-0.63-1.65c-0.07-0.28-0.14-0.57-0.2-0.85l-0.15-0.86
			c-0.02-0.14-0.05-0.29-0.06-0.43l-0.03-0.22c-0.01-0.09-0.01-0.18-0.01-0.27c0-0.36,0.12-0.76,0.35-1.07
			c0.22-0.31,0.52-0.54,0.82-0.7c0.3-0.16,0.61-0.28,0.91-0.36c0.61-0.16,1.22-0.22,1.81-0.24c0.6-0.02,1.19,0.02,1.77,0.08
			c0.75,0.08,1.5,0.22,2.23,0.41c0-0.03,0-0.05,0-0.08c0-0.4-0.03-0.8-0.1-1.17l-0.16-0.7c-0.94-3.15-4.24-5.07-8.19-5.09h-0.09
			h-0.09c-3.93,0.02-7.23,1.93-8.18,5.05l-0.17,0.72c-0.07,0.38-0.1,0.78-0.1,1.19c0,0.04,0,0.08,0.01,0.13
			c0.79-0.21,1.59-0.37,2.41-0.46c0.58-0.07,1.17-0.1,1.77-0.08c0.6,0.02,1.2,0.08,1.81,0.24c0.31,0.08,0.61,0.19,0.91,0.36
			c0.3,0.16,0.59,0.39,0.82,0.7c0.22,0.31,0.34,0.71,0.35,1.07c0,0.09,0,0.18-0.01,0.27l-0.03,0.22c-0.02,0.14-0.04,0.29-0.06,0.43
			l-0.15,0.86c-0.06,0.29-0.13,0.57-0.2,0.85c-0.16,0.56-0.31,1.14-0.63,1.65c0.13-1.15,0.09-2.29,0.14-3.44l0.01-0.43l0-0.21
			c0-0.06,0-0.11-0.01-0.16c-0.02-0.21-0.09-0.38-0.21-0.53c-0.24-0.3-0.7-0.52-1.2-0.65c-1.01-0.27-2.15-0.32-3.27-0.36
			c-0.8-0.02-1.61-0.02-2.43-0.02c0.04,0.67,0.17,1.32,0.39,1.93c0.19,0.54,0.3,1.11,0.29,1.68c0,0.06,0.02,0.13,0,0.19
			c-0.8,2.23-0.25,2.64,4.25,8.25c0.81,1.01,2.26,2.42,3.51,2.48v0c0.03,0,0.06,0,0.09,0c0.03,0,0.06,0,0.09,0v0
			c1.25-0.07,2.7-1.48,3.51-2.48c4.51-5.62,5.05-6.02,4.25-8.25C76.97,36.52,76.99,36.45,76.99,36.39 M75.31,35.69
			c-0.05,0.09-0.11,0.17-0.17,0.24c-0.12,0.15-0.26,0.25-0.4,0.34c-0.29,0.17-0.59,0.24-0.89,0.22c-0.07-0.01-0.15-0.01-0.22-0.02
			c-0.07-0.02-0.15-0.04-0.22-0.06c-0.15-0.04-0.28-0.12-0.42-0.2c-0.13-0.09-0.26-0.2-0.38-0.33c-0.06-0.07-0.12-0.14-0.17-0.23
			c-0.05-0.08-0.11-0.17-0.16-0.27c0.08-0.05,0.16-0.08,0.23-0.11c0.08-0.03,0.15-0.05,0.22-0.07c0.14-0.05,0.28-0.07,0.41-0.09
			c0.26-0.05,0.51-0.04,0.75-0.04c0.24,0.01,0.48,0.05,0.72,0.1c0.12,0.03,0.25,0.06,0.39,0.09c0.07,0.02,0.14,0.04,0.21,0.06
			c0.07,0.02,0.15,0.04,0.24,0.06C75.41,35.5,75.36,35.6,75.31,35.69 M62.86,35.39c0.09-0.02,0.16-0.04,0.24-0.06
			c0.07-0.02,0.14-0.04,0.21-0.06c0.13-0.04,0.26-0.07,0.39-0.09c0.25-0.05,0.48-0.09,0.72-0.1c0.24-0.01,0.49-0.01,0.75,0.04
			c0.13,0.02,0.27,0.04,0.41,0.09c0.07,0.02,0.14,0.04,0.22,0.07c0.08,0.03,0.15,0.06,0.23,0.11c-0.05,0.1-0.1,0.19-0.16,0.27
			c-0.05,0.08-0.11,0.16-0.17,0.23c-0.12,0.13-0.25,0.24-0.38,0.33c-0.14,0.08-0.27,0.16-0.42,0.2c-0.07,0.02-0.15,0.04-0.22,0.06
			c-0.07,0.01-0.15,0.02-0.22,0.02c-0.3,0.01-0.61-0.05-0.89-0.22c-0.14-0.09-0.28-0.2-0.4-0.34c-0.06-0.07-0.12-0.15-0.17-0.24
			C62.94,35.6,62.89,35.5,62.86,35.39 M68.28,39.84c0.15-0.06,0.32-0.08,0.5-0.07c0.11,0.01,0.22,0.04,0.31,0.09
			c0.09-0.04,0.21-0.08,0.31-0.09c0.17-0.02,0.35,0,0.5,0.07c0.15,0.06,0.29,0.16,0.37,0.32c-0.18,0.11-0.31,0.16-0.43,0.21
			c-0.12,0.04-0.22,0.07-0.31,0.08c-0.1,0.01-0.16,0-0.33,0c-0.04,0-0.07-0.01-0.11-0.01c-0.04,0.01-0.07,0.01-0.11,0.01
			c-0.17,0-0.23,0.01-0.33,0c-0.09-0.01-0.19-0.04-0.31-0.08c-0.12-0.05-0.25-0.1-0.43-0.21C68,40,68.13,39.9,68.28,39.84
			 M69.19,44.05H69c-1.15,0-2.08-0.64-2.08-1.42l1.22,0.09c0.64,0.05,1.28,0.05,1.91,0l1.22-0.09
			C71.27,43.42,70.34,44.05,69.19,44.05"/>
		<path class="st0" d="M63.34,69.52c0.16,0.03,0.31,0.04,0.47,0.01c0.26-0.05,0.52-0.17,0.77-0.33c0.27-0.16,0.53-0.34,0.78-0.52
			c0.5-0.37,0.95-0.78,1.34-1.24c0.39-0.46,0.71-0.96,0.96-1.51c0.25-0.54,0.41-1.12,0.51-1.72c0.09-0.6,0.12-1.22,0.07-1.82
			c-0.03-0.3-0.07-0.61-0.15-0.9c-0.03-0.15-0.08-0.3-0.12-0.45c-0.05-0.15-0.1-0.29-0.16-0.44c-0.12-0.29-0.26-0.57-0.42-0.85
			c-0.16-0.27-0.35-0.54-0.55-0.81c0.27,0.18,0.53,0.4,0.77,0.63c0.24,0.23,0.45,0.5,0.64,0.78c0.19,0.28,0.35,0.59,0.48,0.91
			c0.14,0.32,0.23,0.65,0.31,0.99c0,0.02,0.01,0.05,0.01,0.07c0-0.01,0-0.02,0.01-0.03c0.07-0.34,0.17-0.68,0.3-1
			c0.13-0.32,0.29-0.63,0.48-0.92c0.19-0.29,0.4-0.56,0.64-0.79c0.24-0.24,0.5-0.46,0.77-0.64c-0.4,0.53-0.74,1.08-0.98,1.67
			c-0.06,0.14-0.11,0.29-0.16,0.44c-0.04,0.15-0.09,0.3-0.12,0.45c-0.04,0.15-0.06,0.3-0.09,0.45c-0.02,0.15-0.05,0.3-0.05,0.46
			c-0.03,0.3-0.02,0.61-0.02,0.92c0.02,0.31,0.04,0.62,0.1,0.92c0.1,0.6,0.27,1.19,0.53,1.73c0.25,0.55,0.58,1.05,0.98,1.51
			c0.4,0.46,0.86,0.87,1.37,1.23c0.25,0.18,0.52,0.35,0.79,0.52c0.14,0.08,0.27,0.16,0.41,0.24c0.14,0.08,0.26,0.14,0.4,0.2
			c0.11,0.04,0.23,0.08,0.35,0.1c0.68-0.93,1.25-1.69,1.37-2.13c0.32-1.14,0.64-9.37,0.69-10.58c0-0.1-0.02-0.19-0.07-0.27
			c-0.23-0.39-1-1.71-2-3.74c-0.64-1.3-0.94-3.04-0.61-4.31c0.4-1.56,0.56-2.36,0.5-2.28c-3,4.07-5.42,5-5.42,5h-0.11
			c0,0-2.66-1.5-5.35-4.89c-0.1-0.13,0.27,1.2,0.43,2.17c0.21,1.3,0.03,3.01-0.61,4.31c-1,2.04-1.77,3.35-2,3.74
			c-0.05,0.08-0.07,0.18-0.07,0.27c0.05,1.21,0.37,9.44,0.69,10.58C62.27,68.05,62.75,68.71,63.34,69.52"/>
		<path class="st0" d="M86.21,66.24c0.83,1.46,1.45,2.7,1.93,3.87c0.06,0.14,0.12,0.29,0.17,0.43l0.04,0.09
			c0.44,0.1,0.89,0.19,1.34,0.25c1.98-1.42,3.8-3.03,5.44-4.82C91.71,66.77,88.56,66.6,86.21,66.24"/>
		<path class="st0" d="M83.35,60.72c0.32,0.69,0.89,1.6,1.59,2.69l0.8,1.24c0.68,0.11,1.36,0.2,2.03,0.25
			c2.52,0.21,4.96,0.06,7.26-0.46c0.65-0.15,1.3-0.33,1.94-0.55c1.84-2.35,3.38-4.94,4.58-7.7c-0.56,0.44-1.13,0.85-1.72,1.23
			C93.62,61.45,86.93,61.24,83.35,60.72"/>
		<path class="st0" d="M96.36,51.35c-4.08,2.82-11.73,4.17-14.72,4.55c0.54,1.77,0.95,2.6,0.95,2.72c0.45,0.07,1.47,0.13,1.95,0.18
			c3.83,0.41,9.5,0.18,14.79-3.23c0.15-0.09,0.29-0.2,0.44-0.3l0.14-0.1c0.52-0.36,1.02-0.74,1.47-1.11c0.4-0.33,0.8-0.69,1.23-1.1
			l0.15-0.14c0.03-0.03,0.06-0.06,0.1-0.09c1.02-3.24,1.58-6.68,1.61-10.23C103.05,45.04,100.69,48.37,96.36,51.35"/>
		<path class="st0" d="M99.89,37.1c-1.03,5.06-4.97,10.07-9.59,12.81c-4.58,2.72-5.53,2.85-7.58,3.54
			c-0.28,0.39-0.28,0.58-0.59,0.97c-0.11,0.14-0.21,0.27-0.31,0.4c0.6-0.1,0.52-0.09,1.12-0.22c3.04-0.71,7.96-1.84,13.36-5.3
			c0.49-0.31,0.98-0.66,1.46-1.03c0.56-0.43,1.11-0.89,1.63-1.38c0.42-0.39,0.82-0.8,1.2-1.21c1-1.1,1.9-2.31,2.66-3.61
			c0.52-0.87,0.87-1.74,1.1-2.59c-0.38-5.08-1.83-9.83-4.1-14.06C100.61,28.49,100.84,32.48,99.89,37.1"/>
		<path class="st0" d="M82.73,47.87c0.81,1.98,0.34,3.66-0.27,4.63c0.31-0.18,11.9-5.67,14.73-14.17
			c2.34-7.04,2.45-11.85,1.74-15.17c-1.28-2.01-2.76-3.87-4.41-5.56c-0.49,5.08-1.19,11.23-2.04,14.98
			C91.17,38.33,87.09,43.37,82.73,47.87"/>
		<path class="st0" d="M58.77,27.64l0.04-0.03l0.1-0.22c0.18,0.08,0.38,0.11,0.59,0.08c0.47-0.07,0.85-0.45,0.91-0.92
			c0.08-0.62-0.36-1.15-0.94-1.22l-0.26-0.39c0.04,0,0.09-0.01,0.13-0.01c0.86,0,1.55,0.75,1.46,1.63c-0.07,0.64-0.57,1.17-1.2,1.29
			c-0.34,0.06-0.66,0-0.93-0.14C58.72,27.68,58.76,27.65,58.77,27.64"/>
		<path class="st0" d="M54.07,29.04c0.29,0,0.62-0.04,1-0.11c1.68-0.34,3.09-1.29,3.37-1.48c0,0,0.74-0.52,0.74-1.57
			c0-0.44-0.34-0.63-0.82-1.55c-0.7-1.34-1.69-3.31-2.31-4.83c-1.95-4.82-2.08-6.9-2.08-8.53c-0.26,1.14-0.6,3.21-0.35,5.26
			c0.04,0.33,0.09,0.65,0.14,0.95l0.17,0.98c0,0-3.12-3.34-3.12-7.8c-0.18,1.24-0.39,3.29-0.18,5.39l0.07,0.77l-0.53-0.57
			c-0.24-0.26-0.61-0.61-1.04-0.82l-0.38-0.19c0.08,0.9,0.43,3.02,1.88,4.89c0.3,0.38,0.59,0.75,0.88,1.08
			c0.08,0.09,0.16,0.18,0.24,0.27l0.36,0.4c-0.49,0.03-0.98,0.16-1.42,0.37c-0.37,0.18-0.67,0.35-0.78,0.46
			c0.2,0.34,1.5,1.28,3.13,1.76l0.53,0.15l-0.45,0.31c-0.33,0.23-1.1,1-1.1,1s0.96,1.17,2.27,1.17l0.07,0l0.57-0.01l-0.37,0.44
			c-0.66,0.8-0.86,1.48-0.91,1.79C53.73,29.03,53.87,29.04,54.07,29.04"/>
		<path class="st0" d="M84.34,29.04c-0.29,0-0.62-0.04-1-0.11c-1.68-0.34-3.09-1.29-3.37-1.48c0,0-0.74-0.52-0.74-1.57
			c0-0.44,0.34-0.63,0.82-1.55c0.7-1.34,1.69-3.31,2.31-4.83c1.95-4.82,2.08-6.9,2.08-8.53c0.26,1.14,0.6,3.21,0.35,5.26
			c-0.04,0.33-0.09,0.65-0.14,0.95l-0.17,0.98c0,0,3.12-3.34,3.12-7.8c0.18,1.24,0.39,3.29,0.18,5.39l-0.07,0.77l0.53-0.57
			c0.24-0.26,0.61-0.61,1.04-0.82l0.38-0.19c-0.08,0.9-0.43,3.02-1.88,4.89c-0.3,0.38-0.59,0.75-0.88,1.08
			c-0.08,0.09-0.16,0.18-0.24,0.27l-0.36,0.4c0.49,0.03,0.98,0.16,1.42,0.37c0.37,0.18,0.67,0.35,0.78,0.46
			c-0.2,0.34-1.5,1.28-3.13,1.76l-0.52,0.15l0.45,0.31c0.33,0.23,1.1,1,1.1,1s-0.96,1.17-2.27,1.17l-0.07,0l-0.57-0.01l0.37,0.44
			c0.66,0.8,0.86,1.48,0.91,1.79C84.67,29.03,84.53,29.04,84.34,29.04"/>
		<path class="st0" d="M74.39,70.26c-0.05-0.01-0.1-0.01-0.15-0.02c-0.18-0.03-0.36-0.08-0.52-0.14c-0.16-0.06-0.32-0.12-0.47-0.19
			c-0.31-0.13-0.62-0.28-0.92-0.46c-0.6-0.34-1.16-0.77-1.64-1.28c-0.49-0.51-0.89-1.1-1.19-1.75c-0.22-0.47-0.37-0.97-0.47-1.47
			c-0.09,0.48-0.23,0.95-0.43,1.4c-0.28,0.64-0.68,1.24-1.16,1.75c-0.48,0.51-1.03,0.94-1.61,1.29c-0.3,0.17-0.6,0.33-0.91,0.46
			c-0.33,0.14-0.7,0.24-1.09,0.23c-0.03,0-0.05,0-0.08-0.01c1.2,1.66,2.59,3.77,2.38,5.48c-0.06,0.51-0.15,1.1-0.29,1.76
			c1.76,0.16,3.56,0.2,5.37,0.09c0.4-0.02,0.8-0.06,1.2-0.1c-0.14-0.65-0.23-1.24-0.29-1.74C71.93,73.92,73.22,71.9,74.39,70.26"/>
		<path class="st0" d="M63.05,72.18c0.01,0.07,0.03,0.13,0.04,0.19c0.11,0.79-0.02,2.5-0.69,4.47c0.43,0.08,0.87,0.15,1.3,0.22
			C64.03,75.06,63.6,73.38,63.05,72.18"/>
		<path class="st0" d="M62.17,72.2c-0.08-0.57-0.52-1.72-1-2.85c-0.03,1.21-0.44,2.34-1.21,3.38c-0.56,0.75-1.22,1.48-1.92,2.26
			c-0.16,0.18-0.32,0.36-0.49,0.55c1.26,0.44,2.56,0.8,3.87,1.1C62.1,74.73,62.29,73.04,62.17,72.2"/>
		<path class="st0" d="M59.78,71.46c0.75-1,1.07-2.11,0.95-3.3c-0.05-0.52-0.18-0.97-0.31-1.3c-0.18-0.39-0.3-0.65-0.32-0.68
			l-0.87,0.14c-0.59,0.69-4.42,5.2-5.15,7.81c0.82,0.39,1.66,0.74,2.52,1.06c0.49-0.61,1-1.19,1.5-1.75
			C58.72,72.75,59.3,72.1,59.78,71.46"/>
		<path class="st0" d="M57.32,66.62c-1.19,0.89-4.17,3.35-5.15,6.51c0.31,0.17,0.63,0.34,0.95,0.5c0.82-2.34,3.47-5.68,4.66-7.09
			L57.32,66.62z"/>
		<path class="st0" d="M49.73,70.54c0.06-0.15,0.11-0.29,0.17-0.43c0.48-1.17,1.1-2.41,1.93-3.87c-2.28,0.35-5.32,0.52-8.64-0.11
			c1.62,1.75,3.41,3.33,5.35,4.72c0.38-0.06,0.77-0.13,1.15-0.22L49.73,70.54z"/>
		<path class="st0" d="M50.28,64.91c0.67-0.06,1.35-0.14,2.03-0.25l0.8-1.24c0.7-1.1,1.28-2.01,1.59-2.69
			c-3.58,0.52-10.27,0.73-16.48-3.29c-0.47-0.3-0.92-0.63-1.37-0.97c1.2,2.72,2.74,5.24,4.55,7.54c0.54,0.17,1.08,0.32,1.63,0.45
			C45.32,64.97,47.76,65.13,50.28,64.91"/>
		<path class="st0" d="M38.14,55.18l0.14,0.1c0.14,0.1,0.29,0.2,0.44,0.3c5.29,3.42,10.96,3.64,14.79,3.23
			c0.47-0.05,1.49-0.11,1.95-0.18c0-0.12,0.41-0.95,0.95-2.72c-2.99-0.38-10.64-1.73-14.72-4.55c-4.09-2.82-6.42-5.95-7.85-8.42
			c0.01,0.43,0.02,0.87,0.04,1.31c0.18,3.07,0.75,6.02,1.65,8.81c0.39,0.38,0.77,0.71,1.13,1.02
			C37.12,54.44,37.62,54.82,38.14,55.18"/>
		<path class="st0" d="M37.46,45.69c0.38,0.42,0.78,0.82,1.2,1.21c0.52,0.48,1.06,0.95,1.63,1.38c0.48,0.37,0.97,0.71,1.46,1.03
			c5.4,3.46,10.32,4.59,13.36,5.3c0.59,0.14,0.52,0.12,1.12,0.22c-0.1-0.13-0.21-0.27-0.31-0.4c-0.31-0.4-0.31-0.59-0.59-0.98
			c-2.04-0.68-3-0.82-7.57-3.54c-4.62-2.74-8.55-7.75-9.59-12.81c-0.89-4.33-0.74-8.11-0.43-11.08c-2.21,4.28-3.55,9.06-3.84,14.1
			c0.22,0.65,0.51,1.3,0.9,1.96C35.56,43.38,36.46,44.59,37.46,45.69"/>
		<path class="st0" d="M40.87,38.33c2.83,8.5,14.42,13.99,14.73,14.17c-0.61-0.97-1.08-2.65-0.27-4.63
			c-4.36-4.5-8.45-9.54-9.75-15.29c-0.83-3.69-1.53-9.71-2.02-14.75c-1.71,1.8-3.24,3.78-4.54,5.91
			C38.43,27.03,38.66,31.69,40.87,38.33"/>
		<path class="st0" d="M79.13,27.94c0.24,0,0.47-0.06,0.67-0.16c-0.06-0.04-0.09-0.07-0.1-0.07l-0.04-0.03l-0.1-0.22
			c-0.13,0.06-0.28,0.09-0.43,0.09c-0.59,0-1.08-0.48-1.08-1.08c0-0.55,0.42-1.01,0.96-1.07l0.26-0.39C79.22,25,79.18,25,79.13,25
			c-0.81,0-1.47,0.66-1.47,1.47S78.32,27.94,79.13,27.94"/>
		<path class="st0" d="M75.25,72.35c0.01-0.06,0.02-0.12,0.04-0.19c-0.55,1.2-0.99,2.89-0.65,4.9c0.44-0.07,0.87-0.15,1.3-0.23
			C75.27,74.85,75.14,73.13,75.25,72.35"/>
		<path class="st0" d="M78.39,72.7c-0.78-1.04-1.18-2.17-1.21-3.38c-0.48,1.13-0.92,2.28-1,2.85c-0.12,0.84,0.07,2.54,0.75,4.44
			c1.32-0.3,2.61-0.67,3.87-1.11c-0.16-0.18-0.32-0.36-0.49-0.54C79.6,74.18,78.94,73.45,78.39,72.7"/>
		<polygon class="st0" points="78.33,55.64 77.74,65.46 81.98,66.15 80.45,55.63 		"/>
		<path class="st0" d="M81.01,66.6l-0.46-0.08c1.18,1.42,3.84,4.75,4.66,7.09c0.32-0.16,0.64-0.33,0.95-0.5
			C85.18,69.95,82.21,67.49,81.01,66.6"/>
		<path class="st0" d="M78.23,66.15c-0.02,0.04-0.14,0.3-0.32,0.68c-0.13,0.34-0.26,0.79-0.31,1.3c-0.12,1.19,0.2,2.3,0.95,3.3
			c0.48,0.64,1.06,1.29,1.67,1.97c0.5,0.56,1.02,1.15,1.51,1.76c0.85-0.33,1.69-0.69,2.51-1.08c-0.73-2.61-4.56-7.11-5.15-7.8
			L78.23,66.15z"/>
	</g>
	<g>
		<path class="st0" d="M22.58,93.29v3.7h7.13v4.22h-7.13v7.05h-4.39v-19.2h11.66v4.22H22.58z"/>
		<path class="st0" d="M40.02,101.96h-2.08v6.31h-4.39v-19.2h7.68c3.65,0,6.58,2.94,6.58,6.58c0,2.36-1.43,4.5-3.54,5.57l4.09,7.05
			h-4.72L40.02,101.96z M37.94,98.12h3.29c1.21,0,2.19-1.07,2.19-2.47c0-1.4-0.99-2.47-2.19-2.47h-3.29V98.12z"/>
		<path class="st0" d="M55.9,89.07v19.2h-4.39v-19.2H55.9z"/>
		<path class="st0" d="M79.27,99.22c0,5.87-4.09,9.44-9.46,9.44c-6.03,0-10.37-4.44-10.37-9.96c0-5.57,4.42-10.01,10.07-10.01
			c3.68,0,6.78,1.81,8.39,4.39l-3.73,2.14c-0.8-1.26-2.52-2.25-4.69-2.25c-3.24,0-5.65,2.39-5.65,5.76c0,3.26,2.3,5.65,6.03,5.65
			c2.55,0,4.22-1.12,4.91-2.96h-5.13v-3.84h9.63V99.22z"/>
		<path class="st0" d="M101.85,99.22c0,5.87-4.09,9.44-9.46,9.44c-6.03,0-10.37-4.44-10.37-9.96c0-5.57,4.42-10.01,10.07-10.01
			c3.68,0,6.78,1.81,8.39,4.39l-3.73,2.14c-0.79-1.26-2.52-2.25-4.69-2.25c-3.24,0-5.65,2.39-5.65,5.76c0,3.26,2.3,5.65,6.03,5.65
			c2.55,0,4.22-1.12,4.91-2.96h-5.13v-3.84h9.63V99.22z"/>
		<path class="st0" d="M115.97,105.25h-7.13l-0.96,3.02h-4.8l6.53-19.2h5.6l6.53,19.2h-4.8L115.97,105.25z M114.66,101.14
			l-2.25-7.05l-2.25,7.05H114.66z"/>
	</g>
	<g>
		<path class="st0" d="M17.72,117.21l0.4-0.24c0.21,0.74,0.83,1.23,1.84,1.23c1.02,0,1.54-0.53,1.54-1.23
			c0-0.74-0.65-1.02-1.58-1.31c-1.02-0.33-1.94-0.62-1.94-1.69c0-1.01,0.81-1.65,1.86-1.65c1.01,0,1.67,0.58,1.97,1.29l-0.39,0.22
			c-0.23-0.55-0.7-1.06-1.58-1.06c-0.85,0-1.38,0.5-1.38,1.18c0,0.74,0.62,0.96,1.5,1.25c1.09,0.36,2.03,0.7,2.03,1.76
			c0,1.02-0.8,1.68-2.01,1.68C18.81,118.65,18,118.07,17.72,117.21z"/>
		<path class="st0" d="M24.86,116.51v-4.08h0.46v4.08c0,1,0.62,1.7,1.78,1.7c1.16,0,1.79-0.7,1.79-1.7v-4.08h0.46v4.08
			c0,1.3-0.9,2.14-2.25,2.14S24.86,117.8,24.86,116.51z"/>
		<path class="st0" d="M32.25,117.21l0.4-0.24c0.21,0.74,0.83,1.23,1.84,1.23c1.02,0,1.54-0.53,1.54-1.23
			c0-0.74-0.65-1.02-1.58-1.31c-1.02-0.33-1.94-0.62-1.94-1.69c0-1.01,0.81-1.65,1.86-1.65c1.01,0,1.67,0.58,1.97,1.29l-0.39,0.22
			c-0.23-0.55-0.7-1.06-1.58-1.06c-0.85,0-1.38,0.5-1.38,1.18c0,0.74,0.62,0.96,1.5,1.25c1.09,0.36,2.03,0.7,2.03,1.76
			c0,1.02-0.8,1.68-2.01,1.68C33.34,118.65,32.53,118.07,32.25,117.21z"/>
		<path class="st0" d="M43.02,112.86H41.1v5.69h-0.47v-5.69H38.7v-0.44h4.32V112.86z"/>
		<path class="st0" d="M49.35,118.12v0.44h-3.53v-6.13h3.48v0.44h-3.02v2.38h2.8v0.44h-2.8v2.43H49.35z"/>
		<path class="st0" d="M56.81,112.43v6.13H56.4l-3.61-5.27v5.27h-0.46v-6.13h0.4l3.62,5.27v-5.27H56.81z"/>
		<path class="st0" d="M63.93,112.86H62v5.69h-0.47v-5.69H59.6v-0.44h4.32V112.86z"/>
		<path class="st0" d="M69.81,117h-3.07l-0.6,1.56h-0.49l2.38-6.13h0.49l2.37,6.13H70.4L69.81,117z M69.64,116.56L68.28,113
			l-1.37,3.56H69.64z"/>
		<path class="st0" d="M77.93,116.88c0,0.93-0.74,1.67-1.67,1.67h-2.64v-6.13h2.44c0.89,0,1.61,0.73,1.61,1.61
			c0,0.6-0.32,1.09-0.79,1.34C77.49,115.61,77.93,116.18,77.93,116.88z M74.08,112.86v2.35h1.98c0.63,0,1.15-0.53,1.15-1.17
			c0-0.65-0.52-1.17-1.15-1.17H74.08z M77.47,116.88c0-0.68-0.54-1.23-1.21-1.23h-2.18v2.47h2.18
			C76.92,118.12,77.47,117.56,77.47,116.88z"/>
		<path class="st0" d="M81.37,112.43v6.13H80.9v-6.13H81.37z"/>
		<path class="st0" d="M88.08,118.12v0.44h-3.35v-6.13h0.46v5.69H88.08z"/>
		<path class="st0" d="M91.33,112.43v6.13h-0.46v-6.13H91.33z"/>
		<path class="st0" d="M99.88,115.49c0,1.69-1.2,3.06-2.89,3.06h-2.3v-6.13h2.3C98.68,112.43,99.88,113.8,99.88,115.49z
			 M99.43,115.49c0-1.45-0.99-2.63-2.43-2.63h-1.84v5.25h1.84C98.44,118.12,99.43,116.94,99.43,115.49z"/>
		<path class="st0" d="M106.2,117h-3.07l-0.6,1.56h-0.49l2.38-6.13h0.49l2.37,6.13h-0.49L106.2,117z M106.03,116.56l-1.37-3.56
			l-1.37,3.56H106.03z"/>
		<path class="st0" d="M115.2,115.49c0,1.69-1.2,3.06-2.89,3.06h-2.3v-6.13h2.3C114,112.43,115.2,113.8,115.2,115.49z
			 M114.74,115.49c0-1.45-0.99-2.63-2.43-2.63h-1.84v5.25h1.84C113.75,118.12,114.74,116.94,114.74,115.49z"/>
		<path class="st0" d="M121.73,118.12v0.44h-3.53v-6.13h3.48v0.44h-3.02v2.38h2.8v0.44h-2.8v2.43H121.73z"/>
	</g>
</g>
</svg>
