<?xml version="1.0" encoding="utf-8"?>
<!-- Generator: Adobe Illustrator 25.4.1, SVG Export Plug-In . SVG Version: 6.00 Build 0)  -->
<svg version="1.1" id="Layer_1" xmlns="http://www.w3.org/2000/svg" xmlns:xlink="http://www.w3.org/1999/xlink" x="0px" y="0px"
	 viewBox="0 0 303.3 75.9" style="enable-background:new 0 0 303.3 75.9;" xml:space="preserve">
<style type="text/css">
	.st0{fill:#FFFFFF;}
	.st1{fill:#FFBB00;}
</style>
<g>
	<g>
		<g>
			<g>
				<path class="st0" d="M89.1,32c0-0.5-0.3-0.7-0.7-0.7H87v-2.7h3.2c1.4,0,2,0.6,2,2v7.8h11.3v-7.8c0-1.4,0.6-2,2-2h3.2v2.7h-1.4
					c-0.4,0-0.7,0.2-0.7,0.7v18.9h-3.2v-9.8H92.3v9.8h-3.2V32z"/>
				<path class="st0" d="M120,34.5c4.8,0,8.6,3.5,8.6,8.3c0,4.9-3.9,8.4-8.6,8.4s-8.6-3.5-8.6-8.4C111.4,38,115.3,34.5,120,34.5z
					 M120,48.6c3,0,5.5-2.4,5.5-5.8c0-3.3-2.5-5.7-5.5-5.7c-3,0-5.5,2.4-5.5,5.7C114.6,46.2,117,48.6,120,48.6z"/>
				<path class="st0" d="M132.9,38.2c0-0.5-0.3-0.7-0.7-0.7h-1.3v-2.6h2.9c1.4,0,2,0.6,2,1.8v0.6c0,0.5-0.1,0.9-0.1,0.9h0.1
					c0.6-1.4,2.5-3.7,6-3.7c3.8,0,5.5,2.1,5.5,6.1v6.9c0,0.5,0.3,0.7,0.7,0.7h1.3v2.6h-3c-1.4,0-2-0.6-2-2v-7.5c0-2.2-0.4-4-3-4
					c-2.5,0-4.4,1.6-5.1,3.9c-0.2,0.6-0.3,1.4-0.3,2.1v7.5h-3.1V38.2z"/>
				<path class="st0" d="M159.6,34.5c4.5,0,6.9,3.3,6.9,7.5c0,0.4-0.1,1.3-0.1,1.3h-11.7c0.2,3.4,2.7,5.3,5.5,5.3
					c2.7,0,4.7-1.9,4.7-1.9l1.3,2.2c0,0-2.4,2.3-6.2,2.3c-5.1,0-8.5-3.6-8.5-8.4C151.6,37.8,155.1,34.5,159.6,34.5z M163.4,41
					c-0.1-2.7-1.8-4.1-3.8-4.1c-2.3,0-4.2,1.4-4.7,4.1H163.4z"/>
				<path class="st0" d="M172.1,54.9c1.2,0,2.2-0.9,2.8-2.3l0.7-1.7l-5.5-12.7c-0.2-0.5-0.5-0.6-1-0.6h-0.4v-2.6h1.8
					c1.3,0,1.8,0.3,2.3,1.6l3.6,9c0.3,0.8,0.6,1.9,0.6,1.9h0.1c0,0,0.2-1.1,0.5-1.9l3.3-9c0.5-1.3,1-1.6,2.3-1.6h1.8v2.6h-0.4
					c-0.5,0-0.8,0.1-1,0.6l-6.3,15.6c-1,2.5-2.9,3.8-5.2,3.8c-2.4,0-3.8-1.6-3.8-1.6l1.3-2.2C169.8,53.8,170.8,54.9,172.1,54.9z"/>
			</g>
		</g>
		<g>
			<path class="st1" d="M198.5,31.3h-2.1v-2.7h9.5c3.8,0,6.5,2.1,6.5,5.7c0,2.4-1.3,4.1-2.8,4.8v0.1c2.4,0.7,3.7,2.9,3.7,5.4
				c0,4.2-3.2,6.4-7.2,6.4h-5.7c-1.4,0-2-0.6-2-2V31.3z M206,38c2,0,3.2-1.4,3.2-3.4c0-2-1.2-3.3-3.3-3.3h-4.3V38H206z M202.3,48.2
				h4c2.4,0,3.8-1.5,3.8-3.8s-1.5-3.8-3.8-3.8h-4.7v6.9C201.7,47.9,201.9,48.2,202.3,48.2z"/>
			<path class="st1" d="M217.8,38.2c0-0.5-0.3-0.7-0.7-0.7h-1.3v-2.6h3c1.5,0,2.1,0.6,2.1,2v7.6c0,2.2,0.4,4,3,4
				c3.3,0,5.2-2.9,5.2-6v-7.5h3.1v12.7c0,0.5,0.3,0.7,0.7,0.7h1.3v2.6h-2.9c-1.4,0-2-0.6-2-1.8v-0.6c0-0.5,0-0.9,0-0.9h-0.1
				c-0.7,1.6-2.7,3.7-5.9,3.7c-3.6,0-5.4-1.9-5.4-6.1V38.2z"/>
			<path class="st1" d="M238,38.2c0-0.5-0.3-0.7-0.7-0.7H236v-2.6h2.9c1.4,0,2,0.6,2,1.8v0.6c0,0.5-0.1,0.9-0.1,0.9h0.1
				c0.6-1.4,2.5-3.7,6-3.7c3.8,0,5.5,2.1,5.5,6.1v6.9c0,0.5,0.3,0.7,0.7,0.7h1.3v2.6h-3c-1.4,0-2-0.6-2-2v-7.5c0-2.2-0.4-4-3-4
				c-2.5,0-4.4,1.6-5.1,3.9c-0.2,0.6-0.3,1.4-0.3,2.1v7.5H238V38.2z"/>
			<path class="st1" d="M258.2,38.2c0-0.5-0.3-0.7-0.7-0.7h-1.3v-2.6h2.9c1.4,0,2,0.6,2,1.8v0.6c0,0.5-0.1,0.9-0.1,0.9h0.1
				c0.6-1.4,2.5-3.7,6-3.7c3.8,0,5.5,2.1,5.5,6.1v6.9c0,0.5,0.3,0.7,0.7,0.7h1.3v2.6h-3c-1.4,0-2-0.6-2-2v-7.5c0-2.2-0.4-4-3-4
				c-2.5,0-4.4,1.6-5.1,3.9c-0.2,0.6-0.3,1.4-0.3,2.1v7.5h-3.1V38.2z"/>
			<path class="st1" d="M279.1,54.9c1.2,0,2.2-0.9,2.8-2.3l0.7-1.7l-5.5-12.7c-0.2-0.5-0.5-0.6-1-0.6h-0.4v-2.6h1.8
				c1.3,0,1.8,0.3,2.3,1.6l3.6,9c0.3,0.8,0.6,1.9,0.6,1.9h0.1c0,0,0.2-1.1,0.5-1.9l3.3-9c0.5-1.3,1-1.6,2.3-1.6h1.8v2.6h-0.4
				c-0.5,0-0.8,0.1-1,0.6l-6.3,15.6c-1,2.5-2.9,3.8-5.2,3.8c-2.4,0-3.8-1.6-3.8-1.6l1.3-2.2C276.8,53.8,277.8,54.9,279.1,54.9z"/>
		</g>
	</g>
	<g>
		<g>
			<path class="st0" d="M45.8,55.9c0,0-1.9,4.5-3.7,6c0,0-0.1,0.1-0.1,0.1h3c0-0.1,0-0.1,0-0.1s2.4-2,4.4-1.3
				C49.4,60.6,46.5,58.7,45.8,55.9z"/>
			<path class="st0" d="M67.1,20.1h-27c-0.6,0-1,0.5-1,1v1c0.3,0.1,0.5,0.2,0.6,0.4c0.2,0.6,1.7,2.6,1.7,2.6s4.5,0.9,6.1,2.3
				l3.8-1.6c0,0,2.5-0.7,1.2,1.2C51.3,29,48.8,32,48.8,32s0.6,3.5-3,3.8c0,0,2.1,3.6,6.7,6.6c4.6,3,6.5,10.2,4.6,14.3
				c0,0,3.1-0.7,0.4-8.6C54.9,40.2,57.1,37,57.1,37s3.7-3.7,7-2.1c3.4,1.6,1,3.5,1,3.5s-0.9,0.2-1-0.8c-0.1-1-1.7-1.7-2.9-0.9
				c-1.2,0.8-3.6,3-2.1,7.4c1.5,4.4,6.7,12.5-4.4,17.9c-0.1,0-0.1,0.1-0.2,0.1h12.3c0.6,0,1-0.5,1-1V21.1
				C68.1,20.5,67.6,20.1,67.1,20.1z"/>
		</g>
		<path class="st1" d="M38.9,48.5l-0.2,11.7c0,0,6.3-2,0.8-14.7c0,0-1.6-3.4,0.8-8.9c0,0-2.3,0.4-3,0.1c-0.8-0.3-2.9-5-2.9-5
			s-1.2-2.3,1-3.4c2.2-1.1,1.8-3.6,1.8-3.6s-0.4-1.9,1-2.7c0,0,1.1,0,1.3,0.6c0.1,0.1,0.2,0.3,0.3,0.6c2.5-0.4,4.2-3.1,4.2-3.1
			c-1.7-1.8-2.2-6.5-2.2-6.5c-0.3-2.6-1.9-0.7-1.9-0.7s-0.8,2.7-1.8,3.4c-1.1,0.7-2.9-0.1-2.9-0.1c-0.4,0.6-3.7,1.8-3.7,1.8
			c-6.5,1.4-4.8,6.2-4.6,6.9c0.2,0.7,2.3,2.9,1.8,1c-0.5-1.9,1.4-2.4,2-1.5c0.6,0.9,0.7,6,0.1,6.7c-0.6,0.8-2.6,2.2-7.8,4.7
			c-5.2,2.5-5.7,6.6-6.5,8.5c-0.8,1.8-3.4,4.4-4.9,4.3c-1.4-0.1-0.7,0.9-0.7,0.9c4,0.3,6.5-3.5,6.5-3.5c0.3,1.5,0.1,13.9-0.1,14.6
			c-0.2,0.7-0.9,2.4,1.1,2.3c2-0.2,1.2-1.8,1.2-1.8c-1.3-2.3,0.3-8.6,0.3-8.6s3.2-7.5,5.8-4.5c2.6,3,1.7,10.1,1.7,10.1
			c-0.1,3.1,0.5,3.3,0.5,3.3c2.6,0.3,3,2.3,3,2.3c2.1,2.3,2.7,0.8,2.7,0.8l1.3-2.1c0,0-1.3-0.8-1.8-2.2c-0.5-1.3-0.6-9.6-0.6-9.6
			s0-4.2,2.9-4.5C38.6,45.5,38.9,48.5,38.9,48.5z"/>
	</g>
</g>
</svg>
